<svg width="87" height="15" viewBox="0 0 87 15" fill="none" xmlns="http://www.w3.org/2000/svg">
<path d="M14.9442 5.35392C14.8227 4.98097 14.5001 4.70983 14.1115 4.65323L10.1751 4.08124L8.41609 0.527056C8.06781 -0.175685 6.9167 -0.175685 6.56841 0.527056L4.80942 4.08124L0.88229 4.65323C0.494794 4.70983 0.172276 4.98192 0.050699 5.35503C-0.0708777 5.72703 0.0301464 6.13619 0.311401 6.41017L3.15968 9.18635L2.48777 13.1032C2.42184 13.4896 2.58057 13.8812 2.89787 14.112C3.21628 14.3417 3.63777 14.3718 3.984 14.1893L7.49186 12.3396L11.01 14.1893C11.1605 14.2687 11.3254 14.3079 11.4892 14.3079C11.7025 14.3079 11.9157 14.2409 12.0961 14.1122C12.4136 13.8803 12.5722 13.4898 12.5062 13.1034L11.8354 9.18651L14.6837 6.41033C14.965 6.13713 15.0658 5.72703 14.9442 5.35392Z" fill="#FFC700"/>
<path d="M32.9445 5.35392C32.8229 4.98097 32.5004 4.70983 32.1118 4.65323L28.1753 4.08124L26.4163 0.527056C26.068 -0.175685 24.9169 -0.175685 24.5687 0.527056L22.8097 4.08124L18.8825 4.65323C18.495 4.70983 18.1725 4.98192 18.0509 5.35503C17.9294 5.72703 18.0304 6.13619 18.3116 6.41017L21.1599 9.18635L20.488 13.1032C20.4221 13.4896 20.5808 13.8823 20.8981 14.112C21.2156 14.3417 21.638 14.3718 21.9842 14.1893L25.4921 12.3396L29.0102 14.1893C29.1607 14.2687 29.3256 14.3079 29.4894 14.3079C29.7027 14.3079 29.916 14.2409 30.0964 14.1122C30.4138 13.8803 30.5724 13.4898 30.5065 13.1034L29.8357 9.18651L32.6839 6.41033C32.9652 6.13713 33.0661 5.72703 32.9445 5.35392Z" fill="#FFC700"/>
<path d="M50.9445 5.35392C50.8229 4.98097 50.5004 4.70983 50.1118 4.65323L46.1753 4.08124L44.4163 0.527056C44.0681 -0.175685 42.9169 -0.175685 42.5687 0.527056L40.8097 4.08124L36.8825 4.65323C36.495 4.70983 36.1725 4.98192 36.0509 5.35503C35.9294 5.72703 36.0304 6.13619 36.3116 6.41017L39.1599 9.18635L38.488 13.1032C38.4221 13.4896 38.5808 13.8812 38.8981 14.112C39.2165 14.3417 39.638 14.3718 39.9842 14.1893L43.4919 12.3396L47.0101 14.1893C47.1606 14.2687 47.3255 14.3079 47.4893 14.3079C47.7025 14.3079 47.9158 14.2409 48.0962 14.1122C48.4137 13.8803 48.5722 13.4898 48.5063 13.1034L47.8355 9.18651L50.6838 6.41033C50.9652 6.13713 51.0661 5.72703 50.9445 5.35392Z" fill="#FFC700"/>
<path d="M68.9445 5.35392C68.8229 4.98097 68.5004 4.70983 68.1118 4.65323L64.1753 4.08124L62.4163 0.527056C62.0681 -0.175685 60.9169 -0.175685 60.5687 0.527056L58.8097 4.08124L54.8825 4.65323C54.495 4.70983 54.1725 4.98192 54.0509 5.35503C53.9294 5.72703 54.0304 6.13619 54.3116 6.41017L57.1599 9.18635L56.488 13.1032C56.4221 13.4896 56.5808 13.8812 56.8981 14.112C57.2165 14.3417 57.638 14.3718 57.9842 14.1893L61.4919 12.3396L65.0101 14.1893C65.1606 14.2687 65.3255 14.3079 65.4893 14.3079C65.7025 14.3079 65.9158 14.2409 66.0962 14.1122C66.4137 13.8803 66.5722 13.4898 66.5063 13.1034L65.8355 9.18651L68.6838 6.41033C68.965 6.13713 69.0661 5.72703 68.9445 5.35392Z" fill="#FFC700"/>
<path d="M86.9445 5.35392C86.8218 4.98097 86.5004 4.70983 86.1118 4.65323L82.1753 4.08124L80.4163 0.527056C80.0681 -0.175685 78.9169 -0.175685 78.5687 0.527056L76.8097 4.08124L72.8825 4.65323C72.495 4.70983 72.1725 4.98192 72.0509 5.35503C71.9294 5.72703 72.0304 6.13619 72.3116 6.41017L75.1599 9.18635L74.488 13.1032C74.4221 13.4896 74.5808 13.8812 74.8981 14.112C75.0774 14.2418 75.2897 14.3078 75.503 14.3078C75.6679 14.3078 75.8328 14.2685 75.9852 14.1892L79.4931 12.3394L83.0121 14.1892C83.3584 14.3737 83.7788 14.3427 84.0973 14.1109C84.4137 13.8801 84.5724 13.4896 84.5065 13.1031L83.8357 9.1862L86.6839 6.41001C86.965 6.13713 87.0651 5.72703 86.9445 5.35392Z" fill="#FFC700"/>
</svg>
