<svg width="75" height="14" viewBox="0 0 75 14" fill="none"
     xmlns="http://www.w3.org/2000/svg">
    <path d="M13.8463 4.97249C13.7912 4.80289 13.6897 4.6521 13.5534 4.53718C13.417 4.42226 13.2512 4.34781 13.0747 4.32224L9.42846 3.79226L7.79765 0.490649C7.47582 -0.162378 6.40751 -0.162378 6.08568 0.490649L4.45487 3.79226L0.817227 4.32224C0.640886 4.34786 0.475243 4.42235 0.339063 4.53727C0.202884 4.65219 0.101611 4.80296 0.0467188 4.97249C-0.00847358 5.14197 -0.0149992 5.32354 0.0278839 5.49655C0.0707671 5.66956 0.161338 5.82706 0.289297 5.95115L2.92646 8.51477L2.30492 12.143C2.27496 12.3188 2.29465 12.4994 2.36179 12.6645C2.42892 12.8297 2.54083 12.9728 2.6849 13.0778C2.82936 13.1822 3.00009 13.2442 3.17788 13.2568C3.35567 13.2695 3.53346 13.2323 3.69125 13.1494L6.9413 11.4355L10.201 13.1494C10.3405 13.2229 10.4933 13.2593 10.645 13.2593C10.8471 13.2591 11.0441 13.1957 11.2084 13.0779C11.3524 12.9729 11.4643 12.8298 11.5314 12.6646C11.5985 12.4995 11.6183 12.3189 11.5884 12.1432L10.9668 8.51492L13.604 5.95129C13.7318 5.8271 13.8223 5.66956 13.8651 5.49654C13.908 5.32353 13.9014 5.14197 13.8463 4.97249ZM29.123 4.97249C29.0679 4.80289 28.9664 4.6521 28.8301 4.53718C28.6937 4.42226 28.5279 4.34781 28.3515 4.32224L24.7052 3.79226L23.0744 0.490649C22.7525 -0.162378 21.6842 -0.162378 21.3624 0.490649L19.7316 3.79226L16.0938 4.32224C15.9174 4.34786 15.7518 4.42235 15.6156 4.53727C15.4794 4.65219 15.3782 4.80296 15.3233 4.97249C15.2681 5.14197 15.2616 5.32354 15.3044 5.49655C15.3473 5.66956 15.4379 5.82706 15.5659 5.95115L18.203 8.51477L17.5815 12.143C17.5514 12.3188 17.5711 12.4994 17.6382 12.6646C17.7053 12.8297 17.8173 12.9728 17.9615 13.0778C18.1059 13.1822 18.2767 13.2442 18.4544 13.2568C18.6322 13.2695 18.81 13.2323 18.9678 13.1494L22.2179 11.4355L25.4776 13.1494C25.617 13.2229 25.7698 13.2593 25.9216 13.2593C26.1237 13.2591 26.3207 13.1957 26.485 13.0779C26.629 12.9729 26.7408 12.8298 26.808 12.6646C26.8751 12.4995 26.8948 12.3189 26.8649 12.1432L26.2434 8.51492L28.8806 5.95129C29.0085 5.82714 29.099 5.6696 29.1418 5.49658C29.1847 5.32356 29.1782 5.14198 29.123 4.97249ZM44.3997 4.97249C44.3446 4.80289 44.2431 4.6521 44.1068 4.53718C43.9704 4.42226 43.8046 4.34781 43.6282 4.32224L39.9817 3.79226L38.3509 0.490649C38.0291 -0.162378 36.9608 -0.162378 36.639 0.490649L35.0081 3.79226L31.3704 4.32224C31.194 4.34786 31.0284 4.42235 30.8922 4.53727C30.756 4.65219 30.6547 4.80296 30.5998 4.97249C30.5447 5.14197 30.5381 5.32354 30.581 5.49655C30.6239 5.66956 30.7145 5.82706 30.8424 5.95115L33.4796 8.51477L32.8581 12.143C32.828 12.3188 32.8476 12.4994 32.9148 12.6646C32.9819 12.8297 33.0939 12.9728 33.238 13.0778C33.3825 13.1822 33.5532 13.2442 33.731 13.2568C33.9088 13.2695 34.0866 13.2323 34.2444 13.1494L37.4946 11.4355L40.7543 13.1494C40.8937 13.2229 41.0465 13.2593 41.1983 13.2593C41.4004 13.2591 41.5974 13.1957 41.7617 13.0779C41.9057 12.9729 42.0176 12.8298 42.0847 12.6646C42.1518 12.4995 42.1715 12.3189 42.1416 12.1432L41.5201 8.51492L44.1573 5.95129C44.2852 5.82714 44.3757 5.6696 44.4185 5.49658C44.4614 5.32356 44.4549 5.14198 44.3997 4.97249ZM59.6764 4.97146C59.6213 4.80186 59.5199 4.65107 59.3835 4.53616C59.2472 4.42124 59.0814 4.34678 58.9049 4.32122L55.2586 3.79123L53.6278 0.489771C53.306 -0.163257 52.2376 -0.163257 51.9158 0.489771L50.285 3.79138L46.6472 4.32136C46.4709 4.34698 46.3052 4.42147 46.169 4.53639C46.0329 4.65132 45.9316 4.80208 45.8767 4.97161C45.8215 5.14109 45.815 5.32266 45.8579 5.49567C45.9008 5.66868 45.9913 5.82618 46.1193 5.95027L48.7564 8.51389L48.1349 12.1422C48.1049 12.3179 48.1246 12.4985 48.1918 12.6636C48.2589 12.8288 48.3708 12.9719 48.5149 13.0769C48.6594 13.1813 48.8301 13.2432 49.0079 13.2559C49.1856 13.2686 49.3634 13.2314 49.5212 13.1485L52.7714 11.4346L56.0311 13.1485C56.1706 13.222 56.3234 13.2584 56.4751 13.2584C56.6773 13.2582 56.8743 13.1948 57.0385 13.077C57.1825 12.972 57.2944 12.8289 57.3615 12.6637C57.4287 12.4986 57.4484 12.318 57.4185 12.1423L56.797 8.51404L59.4341 5.95041C59.562 5.82622 59.6525 5.66865 59.6953 5.4956C59.7382 5.32256 59.7316 5.14097 59.6764 4.97146ZM74.9531 4.97249C74.898 4.80289 74.7966 4.6521 74.6602 4.53718C74.5239 4.42226 74.3581 4.34781 74.1816 4.32224L70.5353 3.79241L68.9045 0.490796C68.5827 -0.162231 67.5144 -0.162231 67.1925 0.490796L65.5617 3.79241L61.9239 4.32224C61.7476 4.34789 61.582 4.42239 61.4458 4.53731C61.3096 4.65223 61.2083 4.80298 61.1534 4.97249C61.0982 5.14197 61.0917 5.32354 61.1346 5.49655C61.1775 5.66956 61.268 5.82706 61.396 5.95115L64.0332 8.51477L63.4116 12.143C63.3817 12.3188 63.4014 12.4994 63.4685 12.6645C63.5356 12.8297 63.6475 12.9728 63.7916 13.0778C63.9361 13.1821 64.1068 13.2441 64.2846 13.2568C64.4624 13.2694 64.6401 13.2322 64.798 13.1494L68.0481 11.4355L71.3079 13.1494C71.4473 13.2229 71.6001 13.2593 71.7519 13.2593C71.954 13.2591 72.151 13.1957 72.3152 13.0779C72.4593 12.9729 72.5711 12.8298 72.6383 12.6646C72.7054 12.4995 72.7251 12.3189 72.6952 12.1432L72.0737 8.51492L74.7108 5.95129C74.8387 5.8271 74.9292 5.66956 74.972 5.49654C75.0148 5.32353 75.0083 5.14197 74.9531 4.97249ZM70.3796 7.49597C70.2684 7.60401 70.1852 7.73747 70.1371 7.88485C70.089 8.03223 70.0775 8.1891 70.1036 8.34192L70.4836 10.559L68.491 9.51159C68.3542 9.4392 68.2017 9.40148 68.047 9.40173C67.8922 9.40148 67.7398 9.4392 67.603 9.51159L65.6209 10.5562L66.0009 8.34207C66.0271 8.18925 66.0156 8.03235 65.9675 7.88495C65.9194 7.73755 65.8362 7.60409 65.7249 7.49612L64.1171 5.93313L66.3331 5.61042C66.4861 5.58802 66.6314 5.5288 66.7565 5.43783C66.8816 5.34687 66.9827 5.22689 67.0512 5.08821L68.047 3.07068L69.0428 5.08821C69.1111 5.22715 69.2123 5.34733 69.3376 5.43833C69.4629 5.52933 69.6085 5.5884 69.7617 5.61042L71.9864 5.93416L70.3796 7.49597Z"
          fill="#FFB800"/>
</svg>