<svg width="20" height="20" viewBox="0 0 20 20" fill="none" xmlns="http://www.w3.org/2000/svg">
<path fill-rule="evenodd" clip-rule="evenodd" d="M0 9.99999C0 4.47699 4.47699 0 9.99999 0C11.595 0 13.105 0.373999 14.445 1.04C14.5636 1.09784 14.6695 1.17858 14.7568 1.27756C14.844 1.37654 14.9108 1.49181 14.9533 1.61673C14.9958 1.74164 15.0132 1.87373 15.0044 2.00538C14.9956 2.13703 14.9608 2.26564 14.9021 2.3838C14.8434 2.50196 14.7619 2.60733 14.6623 2.69384C14.5626 2.78035 14.4469 2.84629 14.3217 2.88786C14.1964 2.92943 14.0642 2.94581 13.9326 2.93605C13.8011 2.92629 13.6727 2.89059 13.555 2.831C11.9626 2.0412 10.1524 1.80425 8.41038 2.15754C6.66832 2.51083 5.09353 3.43425 3.9346 4.78201C2.77568 6.12978 2.09862 7.82514 2.01031 9.60047C1.922 11.3758 2.42746 13.13 3.44691 14.5861C4.46637 16.0422 5.94174 17.1174 7.64014 17.6418C9.33854 18.1662 11.1632 18.1101 12.8262 17.4822C14.4891 16.8544 15.8956 15.6906 16.8236 14.1745C17.7516 12.6585 18.1483 10.8765 17.951 9.10999C17.9365 8.97945 17.9479 8.84735 17.9845 8.72123C18.0211 8.5951 18.0822 8.47742 18.1643 8.37491C18.3301 8.16787 18.5713 8.03516 18.835 8.00599C19.0986 7.97681 19.363 8.05356 19.5701 8.21934C19.6726 8.30143 19.7579 8.4029 19.8212 8.51797C19.8845 8.63304 19.9245 8.75945 19.939 8.88999C19.979 9.25499 20 9.62499 20 9.99999C20 15.523 15.523 20 9.99999 20C4.47699 20 0 15.523 0 9.99999ZM19.707 2.293C19.8944 2.48052 19.9998 2.73483 19.9998 3C19.9998 3.26516 19.8944 3.51947 19.707 3.70699L10.707 12.707C10.5195 12.8945 10.2651 12.9998 9.99999 12.9998C9.73482 12.9998 9.48051 12.8945 9.29299 12.707L6.29299 9.70699C6.19748 9.61474 6.1213 9.50439 6.06889 9.38239C6.01648 9.26039 5.98889 9.12917 5.98774 8.99639C5.98659 8.86361 6.01189 8.73193 6.06217 8.60903C6.11245 8.48614 6.1867 8.37449 6.2806 8.28059C6.37449 8.1867 6.48614 8.11245 6.60904 8.06217C6.73193 8.01189 6.86361 7.98658 6.99639 7.98774C7.12917 7.98889 7.26039 8.01648 7.38239 8.06889C7.5044 8.1213 7.61474 8.19748 7.70699 8.29299L9.99999 10.586L18.293 2.293C18.4805 2.10553 18.7348 2.00021 19 2.00021C19.2651 2.00021 19.5194 2.10553 19.707 2.293Z" fill="#E34C48"/>
</svg>
